<mxfile host="app.diagrams.net" modified="2023-06-24T23:36:26.842Z" agent="Mozilla/5.0 (Windows NT 10.0; Win64; x64) AppleWebKit/537.36 (KHTML, like Gecko) Chrome/114.0.0.0 Safari/537.36 Edg/114.0.1823.58" version="21.5.0" etag="AytKq2vnhKpBS44ESCp1" type="github">
  <diagram name="第 1 页" id="rim7Fp9lUuidXfeyAlsX">
    <mxGraphModel>
      <root>
        <mxCell id="0" />
        <mxCell id="1" parent="0" />
      </root>
    </mxGraphModel>
  </diagram>
</mxfile>
